<mxfile host="app.diagrams.net" modified="2020-08-21T12:23:45.241Z" agent="5.0 (Windows NT 10.0; Win64; x64) AppleWebKit/537.36 (KHTML, like Gecko) Chrome/84.0.4147.135 Safari/537.36" etag="SVKnVZvSBu_fYyDbcIN-" version="13.6.3" type="github">
  <diagram id="fceYZK4B8EAD64JDlkFU" name="Page-1">
    <mxGraphModel dx="716" dy="378" grid="1" gridSize="10" guides="1" tooltips="1" connect="1" arrows="1" fold="1" page="1" pageScale="1" pageWidth="850" pageHeight="1100" math="0" shadow="0" extFonts="Old Standard TT^https://fonts.googleapis.com/css?family=Old+Standard+TT">
      <root>
        <mxCell id="0" />
        <mxCell id="1" parent="0" />
        <mxCell id="hCmAJAGk-AS-xWxRnL8C-9" value="" style="shape=rect;html=1;verticalAlign=top;fontStyle=1;whiteSpace=wrap;align=center;fillColor=none;" parent="1" vertex="1">
          <mxGeometry x="70" y="100" width="470" height="280" as="geometry" />
        </mxCell>
        <mxCell id="hCmAJAGk-AS-xWxRnL8C-2" value="&lt;font face=&quot;Old Standard TT&quot; size=&quot;1&quot;&gt;&lt;b style=&quot;font-size: 13px&quot;&gt;IP Engineer&lt;/b&gt;&lt;/font&gt;" style="shape=umlActor;html=1;verticalLabelPosition=bottom;verticalAlign=top;align=center;" parent="1" vertex="1">
          <mxGeometry x="130" y="145" width="30" height="60" as="geometry" />
        </mxCell>
        <mxCell id="hCmAJAGk-AS-xWxRnL8C-3" value="&lt;font face=&quot;Old Standard TT&quot;&gt;&lt;span style=&quot;font-size: 14px&quot;&gt;&lt;b&gt;Authenticate&lt;/b&gt;&lt;/span&gt;&lt;/font&gt;" style="ellipse;whiteSpace=wrap;html=1;fillColor=none;" parent="1" vertex="1">
          <mxGeometry x="355" y="270" width="140" height="70" as="geometry" />
        </mxCell>
        <mxCell id="hCmAJAGk-AS-xWxRnL8C-4" value="&lt;font face=&quot;Old Standard TT&quot; size=&quot;1&quot;&gt;&lt;b style=&quot;font-size: 14px&quot;&gt;Generate Workorder&lt;/b&gt;&lt;/font&gt;" style="ellipse;whiteSpace=wrap;html=1;fillColor=none;" parent="1" vertex="1">
          <mxGeometry x="355" y="140" width="140" height="70" as="geometry" />
        </mxCell>
        <mxCell id="hCmAJAGk-AS-xWxRnL8C-5" value="&lt;font style=&quot;font-size: 12px&quot;&gt;&amp;lt;&amp;lt;&lt;font face=&quot;Old Standard TT&quot; style=&quot;font-size: 12px&quot;&gt;include&lt;/font&gt;&amp;gt;&amp;gt;&lt;/font&gt;" style="edgeStyle=none;html=1;endArrow=open;verticalAlign=bottom;dashed=1;labelBackgroundColor=none;exitX=0.5;exitY=1;exitDx=0;exitDy=0;entryX=0.5;entryY=0;entryDx=0;entryDy=0;" parent="1" source="hCmAJAGk-AS-xWxRnL8C-4" target="hCmAJAGk-AS-xWxRnL8C-3" edge="1">
          <mxGeometry x="0.3333" y="35" width="160" relative="1" as="geometry">
            <mxPoint x="600" y="190" as="sourcePoint" />
            <mxPoint x="650" y="175" as="targetPoint" />
            <Array as="points" />
            <mxPoint as="offset" />
          </mxGeometry>
        </mxCell>
        <mxCell id="hCmAJAGk-AS-xWxRnL8C-6" value="" style="edgeStyle=none;html=1;endArrow=none;verticalAlign=bottom;entryX=0;entryY=0.5;entryDx=0;entryDy=0;" parent="1" target="hCmAJAGk-AS-xWxRnL8C-4" edge="1">
          <mxGeometry width="160" relative="1" as="geometry">
            <mxPoint x="180" y="175" as="sourcePoint" />
            <mxPoint x="330" y="95" as="targetPoint" />
          </mxGeometry>
        </mxCell>
        <mxCell id="hCmAJAGk-AS-xWxRnL8C-7" value="&lt;p style=&quot;margin: 4px 0px 0px ; text-align: center ; font-size: 13px&quot;&gt;&amp;lt;&amp;lt;&lt;font face=&quot;Old Standard TT&quot; style=&quot;font-size: 13px&quot;&gt;system&lt;/font&gt;&amp;gt;&amp;gt;&lt;br&gt;&lt;b&gt;&lt;font face=&quot;Old Standard TT&quot; style=&quot;font-size: 13px&quot;&gt;MPLS Network&lt;/font&gt;&lt;/b&gt;&lt;/p&gt;" style="shape=rect;html=1;overflow=fill;html=1;whiteSpace=wrap;align=center;fillColor=none;" parent="1" vertex="1">
          <mxGeometry x="580" y="190" width="200" height="40" as="geometry" />
        </mxCell>
        <mxCell id="hCmAJAGk-AS-xWxRnL8C-8" value="" style="edgeStyle=none;html=1;endArrow=none;verticalAlign=bottom;entryX=0;entryY=0.5;entryDx=0;entryDy=0;exitX=0.949;exitY=0.722;exitDx=0;exitDy=0;exitPerimeter=0;" parent="1" source="hCmAJAGk-AS-xWxRnL8C-4" target="hCmAJAGk-AS-xWxRnL8C-7" edge="1">
          <mxGeometry width="160" relative="1" as="geometry">
            <mxPoint x="400" y="80" as="sourcePoint" />
            <mxPoint x="560" y="80" as="targetPoint" />
          </mxGeometry>
        </mxCell>
        <mxCell id="hCmAJAGk-AS-xWxRnL8C-10" value="&lt;p style=&quot;margin: 4px 0px 0px ; text-align: center ; font-size: 13px&quot;&gt;&amp;lt;&amp;lt;&lt;font face=&quot;Old Standard TT&quot;&gt;system&lt;/font&gt;&amp;gt;&amp;gt;&lt;br&gt;&lt;font face=&quot;Old Standard TT&quot;&gt;&lt;b&gt;TiMOS Export&lt;/b&gt;&lt;/font&gt;&lt;/p&gt;" style="shape=rect;html=1;overflow=fill;html=1;whiteSpace=wrap;align=center;fillColor=none;" parent="1" vertex="1">
          <mxGeometry x="580" y="120" width="200" height="40" as="geometry" />
        </mxCell>
        <mxCell id="hCmAJAGk-AS-xWxRnL8C-11" value="" style="edgeStyle=none;html=1;endArrow=none;verticalAlign=bottom;entryX=0;entryY=0.5;entryDx=0;entryDy=0;exitX=0.953;exitY=0.291;exitDx=0;exitDy=0;exitPerimeter=0;" parent="1" source="hCmAJAGk-AS-xWxRnL8C-4" target="hCmAJAGk-AS-xWxRnL8C-10" edge="1">
          <mxGeometry width="160" relative="1" as="geometry">
            <mxPoint x="497.3000000000002" y="200.47000000000003" as="sourcePoint" />
            <mxPoint x="590" y="220" as="targetPoint" />
          </mxGeometry>
        </mxCell>
      </root>
    </mxGraphModel>
  </diagram>
</mxfile>
